<?xml version="1.0" encoding="utf-8"?>
<!-- Generator: Adobe Illustrator 19.2.1, SVG Export Plug-In . SVG Version: 6.00 Build 0)  -->
<svg version="1.1" id="layer" xmlns="http://www.w3.org/2000/svg" xmlns:xlink="http://www.w3.org/1999/xlink" x="0px" y="0px"
	 viewBox="0 0 652 652" style="enable-background:new 0 0 652 652;" xml:space="preserve">
<style type="text/css">
	.st0{fill:#FFFFFF;}
	.st1{fill:#FFFFFF;}
</style>
<g>
	<path class="st0" d="M340.5,337.4v-32.5l87.3,0c8.9,0,16.1,7.2,16.1,16v38.6c0,19.9-15.9,36.3-36.2,36.4l-55.9,0
		c-41.4,0-75-33.4-75-74.6c0-41.2,33.7-74.6,75-74.6h86.6V281h-86.6c-22.3,0-40.7,18.1-40.7,40.3c0,22.3,18.1,40.3,40.6,40.3h57.8
		v-24.2H340.5z M265.6,246.5c0,0,0,11,0,11V396h-17.2h-0.8c-8.8,0-16-7.1-16-15.9V272l0-25.5H265.6z M604.1,246.6
		c8.8,0,15.9,7.1,15.9,15.9v99.1c0,19.9-16.2,36-36.1,36h-0.6c-13.1,0-24.5-6.5-30.8-17.1L495,279.9c-0.5-0.9-1.3-1.1-2-1.1
		c-0.9,0-1.6,0.5-2,1.2c-0.2,0.3-0.3,0.7-0.3,1.1l0,115h-18.1c-8.8,0-16-7.1-16-15.9V281c0-19.9,16.2-36,36.1-36h0.6
		c13.1,0,24.7,7,31.1,17.6l57.1,100c0.7,0.9,1.4,1.3,2.1,1.3c0.9,0,1.6-0.5,2-1.1c0.2-0.3,0.2-0.6,0.3-0.9l0-115.2H604.1z"/>
	<path class="st1" d="M60.6,288.6c-8.9,1-17,2.3-24.2,3.9c8.1-20.7,24.6-37.1,45.3-45.2c-1.6,7.2-3,15.3-4,24.2
		C70.9,276.1,65.1,281.9,60.6,288.6z M143.3,271.4c-1-8.8-2.4-16.9-4.1-24.1c20.8,8,37.3,24.5,45.4,45.2c-7.2-1.6-15.3-3-24.2-3.9
		c-4.5-6.8-10.3-12.6-17.1-17.1C143.3,271.5,143.3,271.5,143.3,271.4z M77.7,371.2c1,8.9,2.3,17,4,24.2
		c-20.7-8.1-37.2-24.6-45.3-45.3c7.1,1.6,15.1,3,24.1,4c0.1,0,0.1,0,0.2,0C65.1,360.9,70.9,366.8,77.7,371.2z M160.7,354.1
		c9-1,17-2.4,24.1-4c-8.1,20.8-24.7,37.3-45.5,45.4c1.7-7.1,3-15.2,4.1-24c0-0.1,0-0.1,0-0.2c6.8-4.5,12.6-10.3,17.1-17.1
		C160.5,354.2,160.6,354.2,160.7,354.1z M201,306.6V336c-13.9,6.4-34.6,9-41.6,9.8c-1.7,0.3-3.3,0.5-4.8,0.5l-22.3-24.9l22.3-24.9
		c1.3,0,2.6,0.1,4.1,0.4C165.9,297.7,187,300.2,201,306.6z M66.5,296.5l22.3,24.9l-22.3,24.9c-1.5,0-3.1-0.2-4.8-0.5
		c-7-0.8-27.7-3.4-41.6-9.8v-29.4c14.1-6.5,35.1-9,42.3-9.7C63.9,296.7,65.2,296.5,66.5,296.5z M85.6,365.4l24.9-22.2l24.9,22.2
		c0,1.5-0.2,3.1-0.5,4.8c-0.8,7-3.4,27.7-9.8,41.6H95.8c-6.5-14-9-35.1-9.7-42.2C85.8,368,85.6,366.7,85.6,365.4z M95.8,231.1h29.4
		c6.4,13.9,9,34.6,9.8,41.6c0.3,1.7,0.5,3.3,0.5,4.8l-24.9,22.3l-24.9-22.3c0-1.3,0.1-2.6,0.4-4.1C86.8,266.2,89.2,245.1,95.8,231.1
		z"/>
</g>
</svg>
